<svg width="120" height="120" viewBox="0 0 120 120" fill="none" xmlns="http://www.w3.org/2000/svg">
  <!-- Background Circle -->
  <circle cx="60" cy="60" r="60" fill="url(#gradient)" />
  
  <!-- Chart Lines -->
  <path d="M30 45 L50 35 L70 50 L90 30" stroke="white" stroke-width="3" stroke-linecap="round" stroke-linejoin="round" fill="none"/>
  <path d="M30 70 L45 60 L65 75 L90 55" stroke="white" stroke-width="2" stroke-linecap="round" stroke-linejoin="round" fill="none" opacity="0.7"/>
  
  <!-- Chart Bars -->
  <rect x="25" y="75" width="4" height="15" fill="white" opacity="0.8" rx="2"/>
  <rect x="35" y="70" width="4" height="20" fill="white" opacity="0.8" rx="2"/>
  <rect x="45" y="65" width="4" height="25" fill="white" opacity="0.8" rx="2"/>
  <rect x="55" y="60" width="4" height="30" fill="white" opacity="0.8" rx="2"/>
  <rect x="65" y="55" width="4" height="35" fill="white" opacity="0.8" rx="2"/>
  <rect x="75" y="65" width="4" height="25" fill="white" opacity="0.8" rx="2"/>
  <rect x="85" y="70" width="4" height="20" fill="white" opacity="0.8" rx="2"/>
  
  <!-- Gradient Definition -->
  <defs>
    <linearGradient id="gradient" x1="0%" y1="0%" x2="100%" y2="100%">
      <stop offset="0%" style="stop-color:#1e293b;stop-opacity:1" />
      <stop offset="100%" style="stop-color:#475569;stop-opacity:1" />
    </linearGradient>
  </defs>
</svg>
